<?xml version="1.0" encoding="UTF-8"?>
<svg xmlns="http://www.w3.org/2000/svg" xmlns:dc="http://purl.org/dc/elements/1.1/" xmlns:cc="http://creativecommons.org/ns#" xmlns:rdf="http://www.w3.org/1999/02/22-rdf-syntax-ns#" xmlns:svg="http://www.w3.org/2000/svg" viewBox="0 0 640 360" width="640" height="360" role="img" aria-label="cartoon-saloon (thumb)">
  <rect width="640" height="360" fill="#FFFFFF"/>
  <g transform="translate(80 123.1278) scale(1.6)">
  <g data-rescale-wrap="1" transform="translate(0.000005 -0.000002)">
  <defs
     id="defs9112" />
  <metadata
     id="metadata9115">
    <rdf:RDF>
      <cc:Work
         rdf:about="">
        <dc:format>image/svg+xml</dc:format>
        <dc:type
           rdf:resource="http://purl.org/dc/dcmitype/StillImage" />
        <dc:title></dc:title>
      </cc:Work>
    </rdf:RDF>
  </metadata>
  <g
     transform="translate(-172.85714,-188.24561)"
     id="layer1">
    <g
       transform="matrix(0.99750644,0,0,0.99750644,297.06135,-843.41495)"
       id="g9051">
      <path
         id="path8672"
         style="fill:#ffffff;fill-opacity:1;fill-rule:nonzero;stroke:#000000;stroke-width:1.5;stroke-miterlimit:4;stroke-dasharray:none"
         d="m 167.4584,1047.666 0,0 c -1.94005,-2.2268 -3.68687,-3.943 -5.18248,-5.1299 -6.45009,-5.039 -13.74266,-7.5466 -21.82749,-7.5466 -7.46262,0 -14.05569,2.0021 -19.82947,6.0324 -1.21349,0.8425 -2.39221,1.7698 -3.52068,2.7867 l -2.19898,2.1407 c -3.40861,3.5794 -5.88585,7.5209 -7.43557,11.8266 -1.37968,3.7484 -2.05599,7.8019 -2.02894,12.1149 -0.027,9.6314 3.38156,17.8543 10.19879,24.6445 2.39608,2.3613 4.98538,4.3372 7.71768,5.8861 l 0,-0.057 c 0.1971,0.1392 0.47922,0.3399 0.90047,0.5648 0.53718,0.2811 0.8193,0.4212 0.90046,0.4514 l 0.0309,0 c 4.61825,2.2538 9.71571,3.3769 15.26533,3.3769 7.29644,0 13.77358,-1.9426 19.46233,-5.8572 0.39419,-0.1134 0.98548,-0.5372 1.77387,-1.2679 0.0271,-0.026 0.058,-0.085 0.11207,-0.1443 l 0,0.031 c 1.15553,-0.9283 2.284,-1.914 3.38156,-2.9845 6.84428,-6.7902 10.27994,-15.0131 10.30699,-24.6446 -0.0271,-8.5099 -2.70138,-15.9145 -8.02685,-22.2247" />
      <path
         id="path8672-4"
         style="fill:#021a84;fill-opacity:1;fill-rule:nonzero;stroke:none"
         d="m 162.55808,1092.3623 c -0.98548,0.9842 -2.02893,1.8888 -3.07238,2.7052 l 0,-0.026 c -0.0541,0.052 -0.085,0.1108 -0.11208,0.1391 -0.6995,0.6493 -1.23668,1.0388 -1.60382,1.1548 -5.15543,3.5477 -11.06833,5.3216 -17.71551,5.3216 -5.03949,0 -9.6616,-1.0115 -13.8586,-3.0678 l -0.0271,0 c -0.085,-0.031 -0.34009,-0.1443 -0.81931,-0.3939 -0.36327,-0.2293 -0.64539,-0.3958 -0.81544,-0.5101 l 0,0.031 c -2.50815,-1.407 -4.84625,-3.1809 -7.01432,-5.3518 -6.19888,-6.1682 -9.29446,-13.6576 -9.29446,-22.4195 0,-3.9147 0.61835,-7.575 1.8589,-10.9867 1.43378,-3.9388 3.69073,-7.5167 6.75925,-10.7561 l 2.00188,-1.9434 c 1.03959,-0.9311 2.08305,-1.7736 3.1806,-2.5357 5.26751,-3.6595 11.26929,-5.4906 18.02855,-5.4635 7.37759,-0.026 13.99772,2.2523 19.85652,6.8432 1.37967,1.0705 2.95645,2.6205 4.73418,4.645 4.84239,5.7473 7.26552,12.4803 7.26552,20.1972 0,8.7619 -3.12649,16.251 -9.35243,22.4195 m -39.20677,8.057 0,-0.057" />
      <path
         id="path8674"
         style="fill:#ff00ff;fill-opacity:1;fill-rule:nonzero;stroke:none"
         d="m 151.88781,1074.4796 -0.0232,0 -0.0116,0.026 0.0348,-0.026" />
      <path
         id="path8676"
         style="fill:#ffffff;fill-opacity:1;fill-rule:nonzero;stroke:none"
         d="m 165.01213,1068.7414 c 0.35555,0.347 0.78066,0.525 1.31011,0.5297 0.5256,0 0.96616,-0.1752 1.32171,-0.5418 0.37101,-0.3626 0.54878,-0.7879 0.55264,-1.3179 0.004,-0.5256 -0.17004,-0.9618 -0.52945,-1.3374 -0.37101,-0.3548 -0.81544,-0.5454 -1.3333,-0.5604 -0.53332,0 -0.98162,0.2061 -1.33717,0.5722 -0.35941,0.3667 -0.52172,0.8047 -0.52559,1.3328 -0.004,0.5254 0.17391,0.9633 0.54105,1.3228" />
      <path
         id="path8678"
         style="fill:#ffffff;fill-opacity:1;fill-rule:nonzero;stroke:none"
         d="m 149.48401,1093.247 c -0.53719,0 -0.98162,0.2036 -1.34103,0.5723 -0.35555,0.3697 -0.51786,0.8074 -0.52173,1.333 0,0.5297 0.17391,0.9662 0.54105,1.3209 0.35555,0.3486 0.78452,0.5267 1.31011,0.5298 0.5256,0 0.9623,-0.1701 1.32171,-0.5408 0.37101,-0.3589 0.54878,-0.7895 0.55264,-1.3145 0.004,-0.5285 -0.1739,-0.9662 -0.53332,-1.3362 -0.36714,-0.3563 -0.81157,-0.5449 -1.32943,-0.5645" />
      <path
         id="path8680"
         style="fill:#ffffff;fill-opacity:1;fill-rule:nonzero;stroke:none"
         d="m 147.89564,1040.7995 c -0.53332,0 -0.98162,0.201 -1.33716,0.5725 -0.35942,0.3712 -0.52173,0.8028 -0.52559,1.3328 -0.004,0.525 0.1739,0.9661 0.54104,1.3224 0.35555,0.3471 0.78066,0.5254 1.31012,0.5282 0.52559,0 0.96616,-0.1726 1.3217,-0.5405 0.37101,-0.3589 0.55265,-0.7879 0.55265,-1.3179 0.004,-0.525 -0.17005,-0.9615 -0.52946,-1.3374 -0.371,-0.3548 -0.81544,-0.5405 -1.3333,-0.5601" />
      <path
         id="path8682"
         style="fill:#ffffff;fill-opacity:1;fill-rule:nonzero;stroke:none"
         d="m 119.93884,1052.9383 c 0.004,-0.5253 -0.17005,-0.9661 -0.53332,-1.3374 -0.36714,-0.3548 -0.80771,-0.5449 -1.32944,-0.5647 -0.53332,0 -0.98162,0.2061 -1.34103,0.5724 -0.35555,0.3713 -0.51786,0.8077 -0.52173,1.3344 -0.004,0.5284 0.17391,0.9661 0.54105,1.3209 0.35555,0.347 0.78066,0.5253 1.31012,0.53 0.52559,0 0.96229,-0.1701 1.3217,-0.5421 0.37101,-0.3594 0.54878,-0.7879 0.55265,-1.3135" />
      <path
         id="path8684"
         style="fill:#ffffff;fill-opacity:1;fill-rule:nonzero;stroke:none"
         d="m 118.94176,1086.395 c 0.37101,-0.364 0.55264,-0.7881 0.55264,-1.3183 0.004,-0.5251 -0.17004,-0.9615 -0.52945,-1.3328 -0.37101,-0.3592 -0.81544,-0.5449 -1.3333,-0.5648 -0.53332,0.026 -0.98162,0.201 -1.33717,0.5725 -0.35941,0.3713 -0.52172,0.8077 -0.52559,1.3328 0,0.5253 0.17777,0.9662 0.54492,1.3225 0.35168,0.347 0.77679,0.5253 1.30624,0.5284 0.52559,0 0.96616,-0.1726 1.32171,-0.5403" />
      <path
         id="path8686"
         style="fill:#ffffff;fill-opacity:1;fill-rule:nonzero;stroke:none"
         d="m 135.80318,1070.2102 0.0155,0 c -0.29757,0.2319 -0.60675,0.2898 -0.94683,0.1829 -0.37487,-0.1288 -0.60675,-0.4259 -0.67245,-0.8695 l 0.008,0.028 c -0.0348,-0.1237 -0.0348,-0.3169 -0.0155,-0.5374 l -0.008,0.026 c 0.0464,-0.7152 0.32849,-1.8898 0.86954,-3.5487 0.13527,-0.429 0.25507,-0.826 0.37101,-1.1855 0.36328,-0.978 0.65699,-1.5698 0.885,-1.7826 l 0.008,-0.026 c 0.30531,-0.2746 0.60288,-0.3594 0.94684,-0.2473 0.32076,0.1005 0.54105,0.3489 0.67631,0.7428 0.0193,0.072 0.058,0.1572 0.0696,0.2499 l -0.0116,0.026 c 0.0425,0.3408 0.0271,0.7729 -0.0696,1.2902 -0.0232,0.075 -0.0348,0.1701 -0.0502,0.2721 l 1.49175,0.4635 1.41059,-4.3178 -1.48402,-0.4439 -0.21642,0.6023 c -0.0155,0.031 -0.0309,0.062 -0.0773,0.1005 -0.0425,0.036 -0.0928,0.054 -0.13527,0.054 -0.0541,-0.026 -0.0966,-0.026 -0.14685,-0.041 -0.0348,-0.044 -0.0618,-0.077 -0.085,-0.1134 -0.28598,-0.7561 -0.71495,-1.2315 -1.30624,-1.4173 -0.75361,-0.2396 -1.5304,-0.062 -2.32652,0.521 -1.10528,0.7894 -1.95937,2.1871 -2.60863,4.1893 l -0.0193,0.031 c -0.004,0.026 -0.004,0.026 0,0.041 -0.008,0.026 -0.0271,0.049 -0.0386,0.067 -0.0812,0.2241 -0.17004,0.4514 -0.23961,0.6869 -0.39419,1.256 -0.59901,2.3654 -0.59515,3.3617 0.004,0.5964 0.0734,1.1416 0.22801,1.6548 0.37487,1.2437 1.10529,2.0411 2.20285,2.3853 0.79998,0.2656 1.62701,0.1855 2.43086,-0.2293 0.7652,-0.4138 1.36808,-1.1491 1.86275,-2.2039 l 0.23961,-0.6871 -1.62701,-1.0479 c -0.3942,0.9196 -0.73428,1.4887 -1.03573,1.7167" />
      <path
         id="path8688"
         style="fill:#ffffff;fill-opacity:1;fill-rule:nonzero;stroke:none"
         d="m 147.29662,1063.5468 c -0.0271,0.046 -0.0734,0.088 -0.11207,0.1288 -0.0618,0.031 -0.11594,0.026 -0.17778,0 -0.0541,0 -0.0927,-0.059 -0.13526,-0.1005 -0.27052,-0.4514 -0.51786,-0.758 -0.74201,-0.9267 -0.0155,0 -0.0155,0 -0.0193,-0.034 -0.1971,-0.1726 -0.44057,-0.3097 -0.74588,-0.3986 -0.6995,-0.2293 -1.33716,-0.1469 -1.9014,0.2551 -0.58743,0.3638 -1.00481,0.9512 -1.25214,1.7241 l -0.004,-0.028 -0.0116,0.026 c -0.0271,0.093 -0.0348,0.1727 -0.0618,0.2597 -0.058,0.1392 -0.11207,0.2775 -0.16231,0.4406 l -0.008,-0.028 -0.008,0.026 c -0.085,0.3319 -0.12753,0.6717 -0.13526,1.0234 l 0.008,0.028 c -0.008,0.2703 0.0116,0.5331 0.0541,0.8317 0.11208,0.6567 0.46762,1.4915 1.03186,2.4682 0.4483,0.7431 0.73815,1.2411 0.85795,1.5428 l 0.0116,0.028 c 0.0773,0.1933 0.13913,0.4213 0.18551,0.6372 l 0.0116,0.026 c 0.0116,0.049 0.0232,0.1005 0.0309,0.1649 l -0.008,0.026 c 0.0155,0.1958 0.0116,0.3895 -0.0348,0.5748 -0.11594,0.2525 -0.28212,0.4292 -0.47535,0.5529 l -0.0271,0 c -0.29757,0.1469 -0.60288,0.1623 -0.91205,0.08 -0.5024,-0.1624 -0.79612,-0.4955 -0.89273,-1.0358 l 0.008,-0.026 c -0.0348,-0.1263 -0.0348,-0.2734 0.008,-0.4594 0.0232,-0.2669 0.10048,-0.6263 0.24733,-1.07 l -1.35262,-0.4483 -1.35262,4.1816 1.37194,0.4395 0.16232,-0.5408 c 0.0116,-0.057 0.0541,-0.098 0.11594,-0.1237 0.0425,-0.041 0.10821,-0.046 0.18163,-0.028 0.0541,0 0.0966,0.054 0.12367,0.1108 0.17391,0.3336 0.39033,0.6235 0.61835,0.8587 0.24347,0.201 0.54105,0.3476 0.88886,0.4831 0.66086,0.2035 1.34103,0.1236 1.99802,-0.2448 0.67245,-0.4016 1.15939,-1.078 1.44538,-1.99 l 0.2396,-0.6913 c 0.17005,-0.5601 0.21642,-1.1246 0.17005,-1.6816 l 0.008,-0.026 c -0.0155,-0.1546 -0.0232,-0.2852 -0.058,-0.4135 l -0.0155,0 c -0.11207,-0.7384 -0.48695,-1.6079 -1.1362,-2.589 -0.44057,-0.7155 -0.6995,-1.1566 -0.77293,-1.3253 -0.12367,-0.3023 -0.20869,-0.5645 -0.22029,-0.8047 l 0.008,0.026 c -0.0232,-0.077 0.0116,-0.2473 0.11208,-0.4632 0.10434,-0.2165 0.1855,-0.3641 0.27052,-0.3986 l -0.0116,0.026 c 0.22801,-0.1417 0.52172,-0.17 0.84635,-0.072 l -0.0116,0.026 c 0.34782,0.093 0.61834,0.3246 0.78839,0.6987 -0.0116,0.026 -0.0116,0.026 0,0.039 0.004,0.026 0.0271,0.062 0.0271,0.1005 0.0696,0.2525 0.0309,0.6534 -0.0966,1.2182 l -0.008,0.026 c -0.0193,0.072 -0.0425,0.1469 -0.0541,0.2422 l 1.3874,0.4259 1.24828,-3.9236 -1.37194,-0.4167 -0.17778,0.5754" />
      <path
         id="path8690"
         style="fill:#ffffff;fill-opacity:1;fill-rule:nonzero;stroke:none"
         d="m 147.68309,1076.644 c -2.24149,2.2374 -4.94674,3.3514 -8.11575,3.3514 -3.17287,0 -5.88584,-1.1094 -8.14279,-3.3632 -2.24536,-2.2253 -3.36224,-4.9274 -3.36997,-8.081 0,-3.1718 1.10915,-5.8848 3.34678,-8.1459 2.24922,-2.2569 4.96993,-3.4045 8.15052,-3.4209 3.18833,0 5.88972,1.1364 8.12348,3.3934 2.24922,2.269 3.37383,4.9774 3.37383,8.1505 0.004,3.1687 -1.12461,5.874 -3.3661,8.1157 m 2.6666,-15.872 -2.75549,-17.0163 -12.22386,12.2125 -16.44017,-2.5192 8.25487,14.0165 -8.71477,16.8854 17.05466,-3.3439 13.30209,12.989 2.38448,-18.6969 0.0193,-0.3712 0.0348,-0.062 0.59902,-0.3823 0.0232,0 13.6074,-6.9674 -15.14552,-6.7402" />
      <path
         id="path8696"
         style="fill:#000000;fill-opacity:1;fill-rule:nonzero;stroke:none"
         d="m 90.760807,1075.4349 0,-8.336 c 0,-2.1995 -0.421245,-3.8028 -1.267602,-4.7888 -0.846356,-1.0128 -1.943913,-1.5183 -3.292673,-1.5183 -0.649259,0 -1.325571,0.1391 -1.970966,0.4207 -0.676312,0.3097 -1.352624,0.731 -2.028936,1.3256 l 0,-1.4688 -7.157313,0 0,3.8888 1.916862,0 0,10.4768 -1.916862,0 0,3.919 8.707034,0 0,-3.919 -1.549721,0 0,-9.6041 c 0.336224,-0.3095 0.676312,-0.5104 0.985483,-0.6493 0.282119,-0.1391 0.564238,-0.2241 0.815439,-0.2241 0.479216,0 0.873409,0.1649 1.128475,0.533 0.255066,0.3396 0.367141,1.043 0.367141,2.0862 l 0,11.7765 7.041374,0 0,-3.919 -1.777735,0" />
      <path
         id="path8698"
         style="fill:#000000;fill-opacity:1;fill-rule:nonzero;stroke:none"
         d="m 65.354665,1064.7873 c 0.537185,-0.026 0.985484,0.2293 1.298519,0.7611 0.448299,0.7624 0.676312,2.3384 0.676312,4.7311 0,2.2842 -0.228013,3.8329 -0.676312,4.5953 -0.340088,0.5331 -0.761334,0.8152 -1.298519,0.8152 -0.53332,0 -0.95843,-0.2551 -1.267601,-0.7897 -0.479216,-0.818 -0.703365,-2.4226 -0.703365,-4.8184 0,-2.2495 0.224149,-3.7711 0.703365,-4.5335 0.309171,-0.5331 0.734281,-0.7881 1.267601,-0.7611 m 0.05797,-4.2235 c -2.055988,0 -3.802806,0.8726 -5.294556,2.5888 -1.464699,1.7195 -2.19898,4.0895 -2.19898,7.1269 0,2.9876 0.734281,5.3213 2.19898,7.0408 1.464698,1.6922 3.207651,2.5347 5.236586,2.5347 2.001884,0 3.771889,-0.8726 5.267504,-2.5888 1.491751,-1.7151 2.226033,-4.0578 2.226033,-7.0138 -0.02705,-3.042 -0.761334,-5.4074 -2.226033,-7.1269 -1.464698,-1.7197 -3.207651,-2.5617 -5.209534,-2.5617" />
      <path
         id="path8700"
         style="fill:#000000;fill-opacity:1;fill-rule:nonzero;stroke:none"
         d="m 46.089436,1070.0863 c -0.02705,-2.2567 0.224149,-3.7755 0.703365,-4.5379 0.313035,-0.5331 0.734281,-0.7881 1.271466,-0.7564 0.53332,-0.031 0.985483,0.2241 1.29079,0.7564 0.452163,0.7624 0.676312,2.3384 0.676312,4.7342 0,2.2811 -0.224149,3.827 -0.6995,4.5876 -0.313036,0.5377 -0.734282,0.8198 -1.267602,0.8198 -0.537185,0 -0.958431,-0.2551 -1.271466,-0.7923 -0.479216,-0.8123 -0.730417,-2.42 -0.703365,-4.8114 m 7.23847,-6.9608 c -1.464698,-1.7151 -3.211515,-2.5617 -5.209534,-2.5617 -2.055988,0 -3.833723,0.8726 -5.298421,2.5934 -1.487886,1.7195 -2.222168,4.0803 -2.222168,7.1254 0,2.9845 0.734282,5.3216 2.222168,7.0377 1.437646,1.6922 3.184463,2.5391 5.244316,2.5391 1.994154,0 3.740971,-0.8737 5.236587,-2.5932 1.491751,-1.7197 2.226032,-4.0578 2.226032,-7.0138 0,-3.042 -0.734281,-5.4074 -2.19898,-7.1269" />
      <path
         id="path8702"
         style="fill:#000000;fill-opacity:1;fill-rule:nonzero;stroke:none"
         d="m 19.867469,1071.0403 c 0.280573,-0.028 0.53448,0.057 0.788,0.2267 0.25352,0.1108 0.478442,0.3097 0.733509,0.6191 l 0,2.7007 c -0.255067,0.3715 -0.479989,0.6188 -0.733509,0.7927 -0.280959,0.1649 -0.563078,0.2499 -0.872636,0.2499 -0.479988,0 -0.845196,-0.1674 -1.127702,-0.5328 -0.309557,-0.3666 -0.478442,-0.9313 -0.45139,-1.7192 -0.02705,-0.8152 0.141833,-1.3797 0.479989,-1.7468 0.309557,-0.421 0.703751,-0.6189 1.183739,-0.5918 m 0.449844,-10.4766 c -1.606144,0 -3.014806,0.3365 -4.224051,1.0128 -1.267989,0.7065 -2.196275,1.6608 -2.816936,2.9333 l 4.731092,0.9844 c 0.140673,-0.5361 0.365595,-0.9043 0.676312,-1.1006 0.253907,-0.2242 0.619115,-0.3367 1.070505,-0.3097 0.536025,-0.028 0.929832,0.1701 1.212337,0.5377 0.280573,0.3635 0.422406,1.07 0.422406,2.1629 l 0,1.9447 c -0.53564,-0.3942 -1.043067,-0.6763 -1.579092,-0.8425 -0.534093,-0.1958 -1.070119,-0.3125 -1.606145,-0.3125 -1.518417,0 -2.786791,0.5629 -3.772274,1.6651 -1.041907,1.0705 -1.548948,2.509 -1.521896,4.3359 -0.02705,1.8326 0.45139,3.2667 1.43726,4.3369 0.929832,1.0705 2.057534,1.608 3.378468,1.608 0.647714,0 1.267988,-0.1392 1.915702,-0.3942 0.591676,-0.3095 1.183353,-0.7351 1.747977,-1.2955 l 0,1.5188 6.956351,0 0,-3.9143 -1.69078,0 0,-8.7303 c 0,-1.3796 -0.141832,-2.3656 -0.393807,-2.9572 -0.422791,-0.9844 -1.099103,-1.7769 -2.028935,-2.337 -0.927128,-0.5645 -2.250767,-0.8467 -3.914494,-0.8467" />
      <path
         id="path8704"
         style="fill:#000000;fill-opacity:1;fill-rule:nonzero;stroke:none"
         d="m 5.951674,1053.1545 0,1.662 c -0.7880001,-0.7306 -1.464312,-1.2091 -2.02739,-1.4641 -0.5646239,-0.2499 -1.1806475,-0.3942 -1.8855578,-0.3942 -1.66218154,0 -2.93016985,0.6217 -3.8600022,1.831 -0.9298323,1.2138 -1.4086612,2.7053 -1.4086612,4.422 0,1.3796 0.338156,2.7323 0.9858696,3.9986 0.6477137,1.2683 1.86005115,2.7328 3.5794294,4.3374 1.2664424,1.1547 2.0818814,1.9743 2.4470899,2.4533 0.3953526,0.4483 0.7049103,0.9282 0.9027798,1.4657 0.1963237,0.4784 0.2805729,1.0432 0.2805729,1.6347 0,0.8108 -0.1959372,1.4328 -0.563078,1.854 -0.3667543,0.4213 -0.8165984,0.6191 -1.3526239,0.6191 -0.8135067,0 -1.4341679,-0.4212 -1.856573,-1.2683 -0.28250516,-0.5331 -0.42279158,-1.6848 -0.42279158,-3.4633 l -3.77575302,0 0,8.5069 3.77575302,0 0,-1.6031 c 0.62027468,0.5903 1.24093578,1.0703 1.83106628,1.3797 0.5889711,0.2811 1.2938814,0.4213 2.0834273,0.4213 1.577546,0 2.9301699,-0.6462 4.0578718,-1.9141 1.094466,-1.2668 1.6590897,-2.9863 1.6590897,-5.0967 0,-1.5502 -0.366754,-3.0149 -1.0689592,-4.3992 -0.7033644,-1.3781 -2.0003376,-2.8985 -3.8314039,-4.5317 -1.23939,-1.0975 -1.9728986,-1.8009 -2.1978206,-2.0833 -0.3941933,-0.4529 -0.676312,-0.9012 -0.869544,-1.3253 -0.1978695,-0.4212 -0.2825051,-0.8742 -0.2825051,-1.3799 0,-0.6189 0.1402864,-1.0976 0.449844,-1.4385 0.3080118,-0.3625 0.7308034,-0.533 1.2378442,-0.533 0.6191152,0 1.126156,0.2551 1.5218951,0.7922 0.3652085,0.503 0.563078,1.658 0.5901305,3.4316 l 3.8584563,0 0,-7.9148 -3.8584563,0" />
      <path
         id="path8706"
         style="fill:#000000;fill-opacity:1;fill-rule:nonzero;stroke:none"
         d="m 29.668582,1057.0704 2.001883,0 0,18.3645 -2.001883,0 0,3.9144 8.985287,0 0,-3.9144 -1.719764,0 0,-22.2758 -7.265523,0 0,3.9113" />
      <path
         id="path8708"
         style="fill:#000000;fill-opacity:1;fill-rule:nonzero;stroke:none"
         d="m -41.169879,1065.5484 c 0.309558,-0.5372 0.73235,-0.7881 1.268375,-0.7611 0.535639,-0.026 0.985483,0.2242 1.295041,0.7611 0.448298,0.7624 0.67322,2.3384 0.67322,4.7311 0,2.2842 -0.224922,3.8329 -0.700273,4.5907 -0.309557,0.5377 -0.732349,0.8195 -1.267988,0.8195 -0.536025,0 -0.958817,-0.255 -1.268375,-0.7894 -0.478442,-0.818 -0.70491,-2.4226 -0.70491,-4.814 0,-2.2539 0.226468,-3.7755 0.70491,-4.5379 m 1.324026,-4.9846 c -2.055988,0 -3.831404,0.8726 -5.297262,2.5888 -1.489819,1.7195 -2.222168,4.0849 -2.195115,7.1269 -0.02705,2.9876 0.705296,5.3247 2.195115,7.0408 1.43726,1.6894 3.18369,2.5347 5.241611,2.5347 1.997246,0 3.743677,-0.8726 5.238133,-2.5919 1.493297,-1.7166 2.225259,-4.0547 2.225259,-7.0107 0,-3.042 -0.731962,-5.4076 -2.19782,-7.1269 -1.464312,-1.7151 -3.212675,-2.5617 -5.209921,-2.5617" />
      <path
         id="path8710"
         style="fill:#000000;fill-opacity:1;fill-rule:nonzero;stroke:none"
         d="m -30.268889,1064.9581 1.915702,0 0,10.4768 -1.915702,0 0,3.9144 8.731767,0 0,-3.9144 -1.579092,0 0,-9.6041 c 0.338156,-0.3095 0.676312,-0.5058 0.987415,-0.6493 0.282119,-0.1391 0.563078,-0.2241 0.845197,-0.2241 0.478829,0 0.845583,0.17 1.099104,0.533 0.25352,0.3396 0.365595,1.043 0.394193,2.0862 l 0,11.7719 7.040601,0 0,-3.9144 -1.775029,0 0,-8.336 c 0,-2.1995 -0.421246,-3.8028 -1.268375,-4.7888 -0.872249,-1.0159 -1.971353,-1.5183 -3.320885,-1.5183 -0.647714,0 -1.296973,0.1392 -1.944687,0.4166 -0.70491,0.3095 -1.381222,0.7351 -2.057534,1.3251 l 0,-1.4642 -7.152675,0 0,3.8889" />
      <path
         id="path8712"
         style="fill:#000000;fill-opacity:1;fill-rule:nonzero;stroke:none"
         d="m -78.237185,1060.7872 c -0.956884,0 -1.661795,0.17 -2.084586,0.5374 -0.874182,0.649 -1.492911,1.7736 -1.912611,3.3816 l 0,-3.6369 -7.157312,0 0,3.8888 1.887103,0 0,10.4768 -1.887103,0 0,3.9144 9.267792,0 0,-3.9144 -2.14217,0 0,-3.1535 c 0,-1.9174 0.366755,-3.2971 1.070119,-4.1125 0.70491,-0.8739 1.69078,-1.298 2.958768,-1.2679 l 0,-6.1138" />
      <path
         id="path8714"
         style="fill:#000000;fill-opacity:1;fill-rule:nonzero;stroke:none"
         d="m -74.378342,1061.0693 -1.606531,0 0,3.8888 1.606531,0 0,9.4336 c -0.02757,2.0019 0.338156,3.4388 1.070119,4.2542 0.70491,0.8196 1.748363,1.2091 3.124948,1.2091 0.987415,0 2.057534,-0.1932 3.212675,-0.5871 l 0,-4.0579 c -0.282505,0.085 -0.53448,0.1391 -0.788,0.1675 -0.45139,0 -0.789546,-0.1392 -1.014468,-0.4213 -0.253778,-0.3081 -0.367141,-0.8997 -0.367141,-1.7695 l 0,-8.2273 2.169609,0 0,-3.8888 -2.169609,0 0,-6.5622 -5.238133,4.2511 0,2.3111" />
      <path
         id="path8716"
         style="fill:#000000;fill-opacity:1;fill-rule:nonzero;stroke:none"
         d="m -58.519793,1074.9003 c -0.479988,-0.818 -0.70491,-2.4226 -0.70491,-4.814 0,-2.2539 0.224922,-3.7755 0.70491,-4.5379 0.309558,-0.5372 0.731963,-0.7881 1.266443,-0.7611 0.536025,-0.026 0.987415,0.2242 1.325571,0.7611 0.449844,0.7624 0.676312,2.3384 0.676312,4.7311 -0.0286,2.2842 -0.25352,3.8329 -0.733895,4.5907 -0.309171,0.5377 -0.731963,0.8198 -1.267988,0.8198 -0.53448,0 -0.956885,-0.2551 -1.266443,-0.7897 m 6.560613,-11.7748 c -1.49291,-1.7151 -3.239341,-2.5617 -5.236587,-2.5617 -2.057921,0 -3.804351,0.8726 -5.294556,2.5888 -1.465858,1.7195 -2.197821,4.0849 -2.197821,7.1269 0,2.9876 0.731963,5.3247 2.197821,7.0408 1.461606,1.6894 3.208037,2.5347 5.236973,2.5347 2.001883,0 3.774207,-0.8726 5.267117,-2.5919 1.492911,-1.7166 2.22526,-4.0547 2.22526,-7.0107 0,-3.042 -0.732349,-5.4074 -2.198207,-7.1269" />
      <path
         id="path8718"
         style="fill:#000000;fill-opacity:1;fill-rule:nonzero;stroke:none"
         d="m -117.27584,1058.1136 c 0.28212,-0.5648 0.70491,-0.8469 1.23939,-0.8469 0.50704,0 0.95843,0.2821 1.32518,0.8196 0.53448,0.7608 0.87264,2.0833 0.98587,3.9115 l 3.97053,0 0,-8.8387 -3.99913,0 0,1.7963 c -1.1277,-1.4598 -2.36709,-2.1905 -3.71971,-2.1905 -1.71784,0 -3.21229,0.8727 -4.47757,2.6435 -1.71784,2.3955 -2.56342,5.8889 -2.56342,10.4494 0,4.4791 0.78955,7.9148 2.36709,10.3109 1.57446,2.3927 3.57479,3.5748 5.99947,3.5748 1.83106,0 3.43412,-0.7036 4.75814,-2.1104 1.35263,-1.4374 2.16923,-3.4663 2.45173,-6.1144 l -4.62095,-1.4098 c -0.13861,2.284 -0.4197,3.7485 -0.87109,4.3975 -0.33815,0.5073 -0.78954,0.7626 -1.32402,0.7626 -0.62028,0 -1.09911,-0.3411 -1.40828,-0.9904 -0.47999,-0.9844 -0.73389,-3.7167 -0.73389,-8.2505 0,-4.4484 0.19787,-7.0996 0.62066,-7.9145" />
      <path
         id="path8720"
         style="fill:#000000;fill-opacity:1;fill-rule:nonzero;stroke:none"
         d="m -98.882863,1071.2683 c 0.254035,0.1108 0.507427,0.3097 0.732349,0.6191 l 0,2.7006 c -0.224922,0.3669 -0.478442,0.622 -0.732349,0.7882 -0.253521,0.17 -0.564238,0.255 -0.873795,0.255 -0.449842,0 -0.816982,-0.1674 -1.126152,-0.5374 -0.31111,-0.362 -0.47999,-0.9267 -0.45139,-1.7115 -0.0286,-0.8183 0.14041,-1.3828 0.47844,-1.7499 0.3111,-0.421 0.70491,-0.6189 1.183737,-0.5918 0.282119,-0.028 0.535639,0.057 0.78916,0.2267 m 3.577883,-9.8579 c -0.929832,-0.5645 -2.253858,-0.8466 -3.916039,-0.8466 -1.606141,0 -3.011331,0.3364 -4.223661,1.0127 -1.26799,0.7065 -2.19821,1.6649 -2.81694,2.9333 l 4.72955,0.9845 c 0.14041,-0.5362 0.36675,-0.9002 0.67631,-1.0979 0.25352,-0.2267 0.62027,-0.3395 1.070503,-0.3125 0.535639,-0.028 0.929833,0.1701 1.211951,0.5377 0.282506,0.3666 0.422792,1.07 0.422792,2.1629 l 0,1.9447 c -0.536025,-0.3942 -1.070505,-0.6719 -1.577546,-0.8425 -0.53603,-0.1958 -1.07166,-0.3094 -1.60614,-0.3094 -1.51881,0 -2.7868,0.5599 -3.77267,1.6621 -1.04306,1.0705 -1.55049,2.5089 -1.5215,4.3399 -0.0291,1.8285 0.44984,3.2626 1.43687,4.3359 0.93022,1.0705 2.05637,1.6049 3.37847,1.6049 0.64771,0 1.26837,-0.1392 1.915699,-0.3942 0.592063,-0.3095 1.183739,-0.7351 1.746817,-1.2955 l 0,1.5189 6.956352,0 0,-3.9144 -1.69078,0 0,-8.7302 c 0,-1.3797 -0.140416,-2.3657 -0.394194,-2.9573 -0.422405,-0.9844 -1.098717,-1.7738 -2.025844,-2.337" />
    </g>
  </g>
  </g>
  </g>
</svg>
