<?xml version="1.0" encoding="utf-8"?>
<!-- Generator: Adobe Illustrator 16.0.0, SVG Export Plug-In . SVG Version: 6.00 Build 0)  -->
<!DOCTYPE svg PUBLIC "-//W3C//DTD SVG 1.1//EN" "http://www.w3.org/Graphics/SVG/1.1/DTD/svg11.dtd">
<svg version="1.1" id="Layer_1" xmlns="http://www.w3.org/2000/svg" xmlns:xlink="http://www.w3.org/1999/xlink" x="0px" y="0px"
	 width="909.883657" height="1024" viewBox="0 0 568.399 639.686812" enable-background="new 0 0 568.398 639.687"
	 xml:space="preserve">
<g>
	<path d="M369.912,583.868c6.809-10.464,20.602-14.119,25.684-26.335c-8.786-4.206-24.157-1.853-30.415-8.461
		c-5.632,3.004-8.962-1.753-15.27-0.952c0.05,5.508,7.886,3.455,9.537,7.561c-1.552,11.615,0.351,26.785-4.781,34.896
		c1.602,1.001,2.628,3.004,2.879,5.457c-0.4,7.811-0.101,14.67-0.927,20.777c-1.276,9.363-5.682,16.372-6.708,22.63
		c7.635,1.353,10.864-6.908,14.243-11.364c11.54-14.82,25.033-27.587,31.441-46.111
		C386.458,581.964,379.173,583.868,369.912,583.868 M369.912,557.533c6.759-0.05,11.465,1.953,17.072,2.904
		c-5.182,6.357-12.065,11.113-18.975,15.971C366.457,569.999,368.16,563.39,369.912,557.533 M368.009,589.625
		c6.208,0.101,11.164-0.852,16.146-1.902c-3.279,9.513-10.613,15.17-15.169,23.381C365.08,607.348,367.333,594.982,368.009,589.625
		 M119.107,509.57h33.569C72.295,464.26,18.149,378.898,18.149,280.869c0-145.241,119.056-263.146,265.975-263.146
		c147.093,0,266.2,117.905,266.2,263.146c0,98.029-54.246,183.391-134.527,228.701h33.47
		c72.069-50.968,119.132-134.377,119.132-228.701C568.398,125.715,441.206,0,284.124,0C127.293,0,0,125.715,0,280.869
		C0,375.193,47.062,458.602,119.107,509.57 M459.354,548.12c-5.382,5.908-21.328,1.503-25.733,8.462
		c7.435,3.004,15.245-1.202,22.88-0.901c-2.003,12.967-0.226,27.637-0.927,43.356c-0.775,16.222-2.528,27.737,8.562,31.942
		c7.385-22.479-2.202-54.672,2.804-77.201c5.958-1.452,14.82,0.101,16.222-5.658C475.35,544.666,467.115,551.174,459.354,548.12
		 M56.7,531.249h453.171v-8.611H56.7V531.249z M425.109,559.486c-1.477-4.557-2.804-11.615-7.585-12.267h-1.902v2.753
		c0,0.951,0.726,1.202,0.926,2.104c-9.438,13.667-20.352,35.096-21.879,57.225c-0.525,6.909-0.875,17.073,3.781,22.63
		c8.735-1.102,14.919-6.509,21.953-11.265c6.259-4.355,15.07-8.261,17.072-16.071c1.853-6.959-4.105-20.627-7.535-31.091
		C428.289,568.998,426.662,563.941,425.109,559.486 M405.132,622.568c-1.026-21.178,6.859-41.555,12.392-59.328
		c9.037,9.213,8.938,27.536,13.293,41.354C423.632,611.854,414.72,617.511,405.132,622.568 M257.564,148.145
		c3.754,6.759,10.063,10.714,15.195,16.021c-3.504,2.854-9.337,3.255-10.414,8.461c6.058,11.314,22.405,7.96,35.221,10.313
		c4.056,0.852,7.485,3.455,11.44,3.855c4.205,0.551,8.962-0.351,13.317,0c13.994,0.751,29.539,3.855,43.782,4.756
		c6.984,0.251,13.794-0.9,19.951,0c7.01,0.901,13.468,7.16,20.026,1.903c-2.903-2.454-7.685-3.255-13.317-2.955
		c-19.125-14.619-48.714-18.924-82.858-18.774c-5.207-4.857-13.017-7.159-18.023-12.117c5.156-3.504,11.94-5.156,11.364-14.218
		c-2.753-2.653-11.539,0.751-14.193-1.853c4.606-2.103,5.332-11.165,2.829-15.02c-0.776-0.201-1.952,0-1.952-1.052
		c-3.029-0.451-5.282,2.002-8.562,2.903c-3.329,0.801-6.458-0.3-9.487,0.801c-4.506,1.553-6.008,6.209-9.538,5.758
		c0.101-5.808,2.829-9.313,5.683-12.266c7.685,0.951,22.254-1.652,19.024-11.265c-5.632-4.505-13.843,2.003-18.099,0.902
		c-0.1-3.455,6.759-0.25,6.709-3.755c-6.033-5.958-16.897,1.101-11.364,9.412C250.08,122.01,260.918,140.935,257.564,148.145
		 M291.884,148.145h4.756c-3.079,6.358-12.767,6.308-19.125,9.413c-1.077-2.604,4.005-3.104,6.608-4.656
		C286.953,151.349,290.032,149.696,291.884,148.145 M289.055,135.978c-5.683,3.956-13.643,5.358-22.004,6.609
		C270.431,136.378,279.518,135.978,289.055,135.978 M284.124,145.391c-3.73,3.354-9.538,4.856-12.241,9.312
		c-2.103-2.153-4.005-4.756-4.832-8.411C272.608,145.892,277.765,144.991,284.124,145.391 M284.124,115.301
		c-2.002,3.304-5.583,5.157-11.365,4.656C274.086,115.902,281.169,117.604,284.124,115.301 M245.172,373.941
		c-2.403,0.751-5.532,4.006-8.561,6.709c-8.21,7.26-7.911,8.962-13.292,18.775c-2.753,4.956-7.009,9.462-7.685,14.168
		c-2.154,16.121-4.857,35.297-6.659,50.717c35.371,13.268,85.412,25.784,131.397,14.168c3.43-1.752,2.604-4.355,5.732-7.56
		c3.806-3.705,10.363-4.506,11.44-10.413c0.451-2.254-2.879-11.666-4.756-19.626c-1.603-7.009-2.429-15.37-3.855-20.827
		c-1.377-5.407-4.981-8.161-6.659-12.066c-1.652-4.155-2.103-7.811-3.855-11.415c-5.131-10.563-13.217-20.177-19.9-27.186
		c-9.513,2.804-13.567-6.859-19-2.003c-8.938-1.252-12.717,2.704-20.978,2.003c-0.2,4.707,8.412,1.052,7.635,6.508
		c-5.182,1.452-10.814-1.651-17.223-1.952C263.672,373.741,248.202,373.34,245.172,373.941 M306.078,389.061
		c4.606,8.061,6.158,19.826,11.49,26.436c0.551,18.975,5.281,38.55,2.854,57.324c-4.105-35.146-3.78-74.747-24.758-93.222
		C300.019,379.799,303.825,385.156,306.078,389.061 M337.544,556.582c-1.428-3.055-2.254-8.711-6.659-9.362h-1.952
		c0,1.201-1.227,1.252-0.877,2.753c-0.1,1.252,0.426,2.153,0.877,2.804c-10.038,12.017-20.303,34.396-21.829,55.523
		c-0.575,7.46-1.276,18.825,4.706,23.631c8.312-1.001,13.793-7.31,20.052-11.265c6.309-4.105,13.894-7.51,18.049-14.269
		C351.863,583.667,343.752,569.999,337.544,556.582 M330.885,615.058c-4.706,3.305-9.063,7.009-14.244,7.51
		c-0.325-24.532,6.309-42.155,16.147-56.625c2.402,4.907,5.182,11.566,6.708,17.925c1.377,6.408,3.904,16.171,2.778,20.727
		C341.249,608.799,334.115,612.605,330.885,615.058 M327.03,329.833c-5.156-4.104-22.329-2.452-32.342-1.901
		c-16.547,1.101-34.195-4.706-36.148,8.411c2.829,4.705,9.638,6.308,8.511,12.216c6.308,8.712,25.283,7.309,37.174,7.609
		c-6.508,4.757-20.151,2.503-29.539,1.903c-2.704,13.567,21.178,5.106,30.465,5.607c2.252-3.355,8.211-8.161,5.732-13.168
		c-6.084,2.403-18.8,5.207-22.855-0.951c13.118-0.801,32.968,0.15,33.368-10.363c-10.188,2.403-25.057,2.703-35.221,0
		C299.919,335.691,324.727,342.5,327.03,329.833 M341.349,339.196c6.208-0.451,12.091,5.356,19.074,6.608
		c10.664,1.853,25.059-1.853,39.979-0.901c20.927,1.102,38.25,8.812,52.343,6.509c6.609-0.901,19.276-7.26,22.881-12.216
		c1.327-2.003,2.453-7.06,3.779-10.313c3.28-8.061,5.959-13.468,9.488-19.776c6.708-11.915,9.137-24.582,11.44-42.405
		c3.278-25.284,5.531-43.157-7.636-57.275c-17.022-2.304-28.513-6.91-41.854-13.268c-8.862-4.206-18.65-10.814-27.611-13.218
		c-8.462-2.103-17.849,0-26.66-1.752c-7.135-1.602-15.496-6.309-22.881-9.462c-7.134-3.004-14.669-8.962-21.828-10.264
		c-12.867-2.753-23.807,1.302-35.222,1.752c-6.733-6.358-11.39,1.652-17.122-4.756c-3.805,1.352,1.828,3.955,2.703,4.756
		c9.237,8.962,21.178,5.007,38.15,6.709c10.965,1.051,24.307,3.304,34.295,7.46c3.58,1.451,6.459,5.207,10.464,6.558
		c10.764,3.605,22.204,2.954,33.368,7.61c4.882,1.903,9.488,4.807,14.195,6.508c5.656,2.003,11.79,1.953,17.172,3.806
		c4.681,1.651,8.11,5.256,12.467,6.558c6.458,2.003,12.266,1.702,17.948,3.755c11.74,4.305,21.479,13.668,17.272,29.088
		c-2.754-6.509-2.053-16.772-6.759-21.579c-2.303-2.102-6.834-2.052-11.391-1.801c-5.882-6.76-15.57-6.359-23.831-8.461
		c-9.037-2.403-16.521-5.908-25.634-7.56c-29.789-5.308-60.153-9.013-91.521-10.314c-8.561-0.4-17.022,0.601-25.633,0
		c-17.223-1.401-33.719-5.607-50.442-4.756c-14.093,0.601-27.986-2.002-40.953-1.001c-8.361,0.701-15.696,4.857-23.806,3.705
		c-7.585,5.558-15.42,10.564-28.613,10.414c-3.48,3.805-9.112,5.858-14.244,8.512c-4.907,2.503-9.888,5.357-15.17,7.56
		c-8.311,3.354-17.598,4.556-24.757,8.461c-3.955,1.953-8.987,6.409-14.318,9.512c-6.859,3.655-11.015,5.958-12.292,12.116
		c-2.153,9.563,5.932,18.324,6.608,28.237c0.3,5.207-2.253,9.512-1.952,14.118c0.875,11.415,7.685,15.02,11.49,24.432
		c10.364,2.354,10.038,13.668,17.072,18.875c2.779,2.003,11.891,5.207,17.123,6.508c9.587,2.354,14.919-1.501,22.854-3.804
		c5.507-1.603,11.24-2.304,15.295-5.558c-0.15-2.254-3.129-5.858,2.854-7.51c5.131-1.452,0.175,7.309,5.657,5.607
		c17.323-3.755,36.698-1.303,55.248-3.755c3.905-0.501,7.385-2.554,11.39-2.854c5.032-0.25,10.363,1.802,15.22,1.852
		c14.469,0.602,28.612-2.603,42.856-1.852c10.563,0.601,21.027,1.953,32.367,2.854c26.085,1.902,53.62,7.409,76.225,10.363
		c14.319,1.902,29.84,0.4,38.978,5.607c5.206-2.904,12.642-4.256,16.196-9.363c2.653-3.754,2.353-10.463,4.705-16.972
		c1.652-4.155,5.808-7.91,6.659-11.215c1.127-4.105,0-10.213,0.977-15.12c2.778-14.018,9.787-24.683,9.538-39.452
		c5.331,14.419-1.327,19.726-4.757,32.894c-2.153,7.91-2.579,16.521-3.755,23.43c-0.701,3.806-4.256,7.761-5.732,11.315
		c-5.282,12.566-7.135,20.577-18.1,26.535c-14.669,7.51-30.564,0.65-53.369-1.052c-9.138-0.701-19.075,0.401-27.537,0
		c-5.006-0.501-9.787-1.953-14.293-1.953c-2.629,0-5.958,1.152-8.562,0.952c-8.562-0.701-19.275-7.36-27.586-3.705
		c-3.63,1.452-3.479,5.107-6.659,8.411c-5.582,6.058-16.422,11.865-15.295,19.776c3.905,2.353,10.163,2.452,14.318,4.655
		c4.507,8.611,13.018,15.07,17.123,24.683c1.427,3.305,1.276,7.511,2.929,11.165c1.526,3.805,5.057,6.559,6.559,10.364
		c5.683,14.067,5.933,30.64,11.49,45.96c-4.631,5.006-7.435,14.419-14.319,17.973c-4.706,2.254-14.144,3.005-21.878,4.757
		c-7.86,1.652-16.097,4.405-22.881,4.656c-8.086,0.301-18.249-1.603-27.586-2.854c-27.01-3.354-60.129-7.609-74.272-19.575
		c-0.727-20.978,9.688-34.596,10.514-50.916c7.585-18.475,16.396-35.849,30.44-48.014c7.86,1.102,10.264-3.004,13.343-6.559
		c-0.927-11.666-7.485-14.87-12.417-20.777c0.976-3.955,5.532-3.204,2.878-8.461c-24.207,7.96-49.74,3.454-75.274,8.461
		c-4.706,1.001-9.212,3.655-14.244,4.706c-16.822,3.855-35.472,6.158-52.293,5.657c-0.25-12.716-8.211-18.074-12.417-26.334
		c-4.255-8.212-9.487-17.523-12.391-26.385c-1.902-6.008-1.702-13.618-3.755-20.677c-2.053-6.759-6.709-12.417-7.686-18.775
		c-0.976-7.509,0.876-14.769,1.953-22.529c5.732-3.805,12.392-4.907,19.025-8.512c7.259-4.105,12.716-11.365,19.976-13.217
		c4.581-1.101,9.813,0.55,14.318-0.951c3.43-1.052,6.659-4.606,10.414-6.559c3.88-2.103,8.386-3.905,12.342-5.708
		c8.411-3.455,16.822-8.411,24.757-11.264c3.179-1.152,6.834-0.801,9.587-1.853c4.731-1.903,8.662-5.607,13.293-7.61
		c22.404-8.762,47.011-8.662,72.369-17.724c-3.579-6.058-6.708-4.856-10.438-3.905c-14.169,3.905-37.274,9.563-52.344,13.217
		c-6.358,1.602-14.043,1.853-18.149,3.905c-3.855,1.703-6.734,6.258-10.414,8.261c-7.585,4.306-17.749,7.711-26.66,11.365
		c-9.288,3.905-19.476,9.313-27.587,11.315c-3.379,0.851-7.234,0-10.563,0.951c-8.036,2.553-15.57,10.414-25.684,16.021
		c-7.284,4.005-24.131,10.764-25.733,16.923c-0.601,2.302,1.126,9.812,2.002,13.918c0.827,5.106,1.902,10.313,2.879,14.318
		c2.102,9.413,3.98,20.227,6.608,27.286c4.255,11.716,14.043,22.33,18.149,34.795c2.353,7.761,1.376,15.121,4.656,23.582
		c10.063,5.407,21.277,2.452,31.441,0.851c37.098-5.707,69.516-13.969,108.568-16.021c7.384,4.256,13.242,10.063,15.119,19.827
		c-7.309,1.802-14.694,4.055-19.926,8.461c-12.116,10.313-22.004,47.362-27.636,65.836c-2.454,7.961-6.408,16.122-6.659,24.532
		c-0.326,18.174,9.887,18.425,23.831,22.529c8.411,2.504,17.522,4.206,22.855,5.607c14.168,3.855,29.939,9.914,45.735,10.364
		c25.483,0.901,46.612-7.16,65.687-13.117c4.256-8.611,12.816-13.018,14.243-22.729c1.077-7.561-2.879-16.472-5.683-26.234
		c-2.527-8.563-3.955-18.324-6.733-25.334c-4.756-12.216-13.217-22.43-15.271-32.093c-1.802-4.355-17.372-10.964-17.022-19.726
		C321.598,349.81,336.843,339.496,341.349,339.196 M200.414,204.669c4.305,0.951,2.653,6.708-2.829,5.657
		C196.659,206.571,199.037,206.171,200.414,204.669 M196.659,274.311c-0.801-3.705,2.329-3.305,2.778-5.607
		c-6.408,0.551-11.74,8.711-21.728,10.313c-11.29,1.703-26.985-0.4-32.468-7.509c-3.08-3.855-0.2-8.411-5.683-11.265
		c2.053-3.154,7.885-4.856,4.707-10.514c6.008-1.352,10.363-5.857,16.146-8.46c6.309-2.704,12.517-4.757,20.979-3.705
		c10.113,1.402,13.542,9.212,21.954,12.166C209.125,256.888,208.825,274.56,196.659,274.311 M216.56,321.373
		c-3.08,0.35-4.556-1.152-4.656-3.805c1.077-0.751,2.503-1.353,4.656-0.901V321.373z M233.732,205.62
		c-2.203,0.701-6.559,1.853-8.611,0c-0.926-5.207,5.132-7.009,8.611-4.806V205.62z M276.589,203.717
		c-2.403,0.101-2.979-1.451-4.706-1.852C272.659,195.356,281.57,200.063,276.589,203.717 M253.733,317.567
		c-1.752-1.001-4.505-1.001-3.805-4.707h3.805V317.567z M252.808,273.409c6.258-12.216,11.94-29.538,28.563-28.336
		c-5.532,9.762-19.175,12.016-16.146,25.433c2.028,9.112,14.594,11.866,25.634,14.019c-3.029,3.455,2.804,5.307,1.026,6.708
		C276.088,287.979,266.451,278.716,252.808,273.409 M289.932,316.666v-3.805h3.729C294.187,315.765,292.885,317.117,289.932,316.666
		 M321.397,199.012c1.027-0.801,2.579-1.252,4.732-0.952C327.656,202.465,320.572,203.317,321.397,199.012 M329.959,313.812
		c2.929-0.45,4.155,0.801,3.805,3.755C330.685,318.018,329.508,316.766,329.959,313.812 M402.254,204.669h4.756
		c0.676,3.403-1.427,4.055-4.756,3.754V204.669z M368.009,321.373c-3.33,0.7-3.43-3.305-1.903-4.707
		C369.435,315.965,369.486,319.92,368.009,321.373 M368.986,202.766c-2.104,2.153-3.706-0.301-6.659,0
		c0.05-3.404,3.054-3.855,6.659-3.754V202.766z M403.231,327.931c-0.301-2.203,0.149-3.605,0.875-4.706
		C408.512,322.574,407.787,329.533,403.231,327.931 M435.573,333.588c-1.952,0.4-2.453-0.751-3.78-1.001
		c0.802-1.352,1.428-2.954,3.78-2.755V333.588z M386.057,273.409c1.903-6.708-7.484-9.012-5.656-18.875
		c-3.33,1.502-3.33,6.159-4.807,9.463c-5.808-7.91,2.103-22.479,8.561-27.285c16.247-12.116,44.233-6.309,54.297,7.459
		c-0.775,2.804-2.403-1.151-4.831,0c4.104,8.162,14.719,9.914,12.466,24.533C433.37,281.369,403.731,282.772,386.057,273.409
		 M456.5,336.342c-0.526-1.552,2.754-3.955,0-4.606c0.7-2.854,2.052,0.852,3.83,0C460.23,334.44,459.98,336.943,456.5,336.342
		 M463.208,318.569c1.128-0.801,2.554-1.202,4.757-1.001C469.518,322.924,462.333,323.725,463.208,318.569 M469.868,297.841
		c0.477-0.751,0.926-1.452,0.926-2.804c1.703,0.2,2.203,1.602,1.903,3.755C471.97,298.242,471.145,297.791,469.868,297.841
		 M472.697,225.346c-2.578,0.651-1.903-1.802-3.755-1.802c0.225-1.802,1.651-2.253,3.755-1.902V225.346z M474.599,276.163
		c1.076-0.801,2.604-1.151,4.806-0.851C480.908,279.718,473.874,280.418,474.599,276.163 M485.038,259.291
		c-2.653-0.851-1.026-1.502-0.9-3.754C486.339,255.836,486.339,257.939,485.038,259.291 M485.038,240.316
		c-0.551-3.905,0.326-6.359,4.731-5.457C490.219,238.664,488.893,240.766,485.038,240.316 M115.727,583.868
		c6.659-10.965,21.479-13.869,25.734-27.286c-18.875-0.651-28.362-8.211-45.735-8.462c-0.776,6.359,7.635,3.806,9.538,7.561
		c0.15,12.717,0.876,25.984-4.781,32.943c6.733,9.412,1.651,24.132,1.952,37.699c-2.804,3.755-7.285,6.008-6.709,13.117
		c8.912,1.603,9.587-4.956,12.416-9.462c1.728-0.351,4.03-0.351,3.73-2.804c9.988-14.97,21.528-28.388,29.589-45.21
		C131.548,581.314,125.14,584.068,115.727,583.868 M113.825,556.582c5.883,1.001,10.865,3.104,18.049,2.904
		c-3.379,8.26-11.741,11.464-18.975,15.971C113.199,569.198,114.325,563.691,113.825,556.582 M114.801,589.625
		c4.606-1.052,9.737-1.802,15.169-1.902c-2.052,11.064-11.339,15.069-15.169,24.433
		C111.822,605.446,115.727,597.335,114.801,589.625 M306.078,569.749c-6.059-7.811-15.22-12.466-23.681-17.673
		c-2.003-1.152-0.876-5.157-3.855-4.856c-2.878-1.952-6.257-3.354-11.49-2.854c6.358,8.312,4.581,23.381,3.905,36.749
		c-0.25,1.352-2.152,1.001-2.928,1.952c-0.977,3.354,2.353,2.554,1.952,5.558c-1.326,2.753-4.606,3.555-4.756,7.409
		c1.927,0.651,6.233-1.051,6.659,1.052c1.227,11.715-5.582,28.737,5.633,31.992c5.682-3.555,0.825-17.322,3.854-23.631
		c9.888,5.657,8.036,22.83,22.855,23.631c1.652-10.614-6.408-15.119-10.563-20.777c-4.355-6.058-6.959-12.867-11.265-19.676
		C289.781,581.915,299.769,577.509,306.078,569.749 M282.396,578.209c-2.328-4.456-0.426-12.767-1.026-18.724
		c6.458,1.352,9.988,5.808,15.27,8.561C294.587,574.154,286.477,574.205,282.396,578.209 M181.389,594.18
		c-3.43-15.42-7.335-30.339-9.488-46.961c-3.08,0.4-2.153-3.004-5.732-1.903c-8.311,16.873-13.067,37.2-20.051,55.474
		c-2.779,2.103-8.086-1.753-8.512,3.805c0.426,2.653,7.235-0.851,7.635,1.803c-2.303,7.561-4.906,16.271-2.804,25.533h7.585
		c-0.325-19.175,4.806-32.843,24.758-31.991c4.606,8.211,0,25.583,8.561,30.039c2.153-9.313,0.675-22.479-0.976-30.941
		c5.032-1.051,12.516,0.401,13.267-4.856C191.702,591.728,186.12,594.532,181.389,594.18 M158.534,598.036
		c2.653-10.664,7.435-19.125,8.562-31.141c4.956,7.159,6.308,17.673,6.708,29.138C168.722,596.684,164.316,598.136,158.534,598.036
		 M198.562,636.586c7.635-0.15,8.937-9.112,11.49-14.019c8.711-17.673,19.275-33.944,26.56-51.867
		c-12.817-8.813-25.633-18.024-39.026-26.336C204.62,571.952,195.808,607.499,198.562,636.586 M208.975,561.288
		c8.211,2.103,12.867,7.359,20.052,10.414c-5.533,11.966-14.57,20.677-18.976,33.744
		C206.347,593.58,210.352,576.909,208.975,561.288"/>
</g>
</svg>
