<svg version="1.1" id="svg219" sodipodi:docname="STZ5.svg" inkscape:version="1.2 (dc2aedaf03, 2022-05-15)" xmlns:inkscape="http://www.inkscape.org/namespaces/inkscape" xmlns:sodipodi="http://sodipodi.sourceforge.net/DTD/sodipodi-0.dtd" xmlns="http://www.w3.org/2000/svg" xmlns:svg="http://www.w3.org/2000/svg" viewBox="-0.02 0 87.8 31.02">
  <sodipodi:namedview id="namedview221" pagecolor="#505050" bordercolor="#eeeeee" borderopacity="1" inkscape:showpageshadow="0" inkscape:pageopacity="0" inkscape:pagecheckerboard="0" inkscape:deskcolor="#505050" showgrid="false" inkscape:zoom="19.722222" inkscape:cx="25.352113" inkscape:cy="15.490141" inkscape:window-width="1920" inkscape:window-height="1001" inkscape:window-x="-9" inkscape:window-y="-9" inkscape:window-maximized="1" inkscape:current-layer="g217"/>
  <defs id="defs161">
    <clipPath id="9uwkgbveoa">
      <path d="M1671 0v1512H0V0h1671z" id="path116"/>
    </clipPath>
    <clipPath id="aq3wcpvc2b">
      <path d="M16.388 0v5.218H11.04v13.888H5.279V5.218H0V0h16.388z" id="path119"/>
    </clipPath>
    <clipPath id="zyfxwz48fc">
      <path d="M17.584 0 9.32 13.89h9.115l-2.896 5.216H0L8.264 5.218H.692V0h16.892z" id="path122"/>
    </clipPath>
    <clipPath id="md8s2zkhxd">
      <path d="M8.293 0C13.901 0 16.18 2.8 16.18 6.248c0 2.332-1.086 4.624-3.686 5.792l4.881 7.066h-6.828l-4.786-8.043v8.043H0V0zm0 4.706H5.761v3.748h2.532c1.549 0 2.158-.837 2.158-1.874 0-1.037-.61-1.874-2.158-1.874z" id="path125"/>
    </clipPath>
    <clipPath id="15tblq3qwe">
      <path d="m12.703 0 7.564 19.106h-6.104l-.689-2.075H6.793l-.69 2.075H0L7.564 0h5.14zm-2.57 6.967-2.07 6.235h4.14l-2.07-6.235z" id="path128"/>
    </clipPath>
    <clipPath id="hebpwi8yzf">
      <path d="M.527 0c.256 0 .429.148.429.367a.346.346 0 0 1-.08.228.387.387 0 0 1-.19.117l.314.51H.714L.43.746H.249v.476H0V0zM.508.227h-.26v.295h.26C.635.522.7.472.7.373.7.276.635.227.51.227z" id="path131"/>
    </clipPath>
    <clipPath id="15nadfmamg">
      <path d="M89.204 0v31H0V0h89.204z" id="path134"/>
    </clipPath>
    <clipPath id="xxcpzlwg1h">
      <path d="M1.149 0a1.149 1.149 0 1 1 0 2.298 1.149 1.149 0 0 1 0-2.298zm0 .224a.926.926 0 0 0 0 1.85.926.926 0 0 0 0-1.85z" id="path137"/>
    </clipPath>
    <clipPath id="joyp05f2ai">
      <path d="M8.44 0c7.03 0 7.8 4.303 7.8 5.759H10.7c0-.605-.471-1.513-2.346-1.513-1.868 0-2.346.908-2.346 1.513 0 3.065 11.139 0 11.139 8.104 0 3.537-2.56 6.326-8.502 6.326C.622 20.19.02 15.263 0 13.77h5.82c0 .817.478 1.894 2.826 1.894 2.127 0 2.74-.82 2.74-1.591 0-3.125-10.899-.14-10.899-8.313C.487 4.409 1.411 0 8.441 0z" id="path140"/>
    </clipPath>
    <clipPath id="5o3ot4ar8j">
      <path d="M3.05 0c.892 0 1.766.386 2.4 1.165l-.762.643C4.233 1.251 3.693.977 3.05.977c-1.157 0-1.971.865-1.971 2.15 0 1.252.831 2.11 1.988 2.11.686 0 1.251-.352 1.637-.832l.762.651a3.007 3.007 0 0 1-2.4 1.149C1.415 6.205 0 5.125 0 3.128 0 1.397 1.097 0 3.05 0z" id="path143"/>
    </clipPath>
    <clipPath id="tfbcitlzck">
      <path d="M1.037 0v6.085H0V0h1.037z" id="path146"/>
    </clipPath>
    <clipPath id="rs779nxdvl">
      <path d="m1.028 0 2.974 4.37h.017V0h1.028v6.085H3.993L1.054 1.79h-.017v4.294H0V0h1.028z" id="path149"/>
    </clipPath>
    <clipPath id="od7az71lcm">
      <path d="M3.83 0v.926H1.038v1.68H3.29v.925H1.037v1.628H4.01v.926H0V0h3.83z" id="path152"/>
    </clipPath>
    <clipPath id="stobq7wmxn">
      <path d="m1.037 0 2.005 3.642h.017L5.065 0h1.037v6.085H5.065V2.014h-.017L3.385 4.91h-.677L1.046 2.014l-.009 4.07H0V0h1.037z" id="path155"/>
    </clipPath>
    <clipPath id="hhiksz30ko">
      <path d="m3.282 0 2.28 6.085h-1.08l-.463-1.312H1.534L1.08 6.085H0L2.271 0h1.011zm-.497 1.243h-.017l-.917 2.64h1.86l-.926-2.64z" id="path158"/>
    </clipPath>
  </defs>
  <g clip-path="url(#9uwkgbveoa)" transform="translate(-74 -1139)" id="g217">
    <g clip-path="url(#aq3wcpvc2b)" transform="translate(90.893 1139.541)" id="g165" style="fill: rgb(0, 101, 119); fill-opacity: 1; --darkreader-inline-fill: #79ebff;" data-darkreader-inline-fill="">
      <path fill="#FFFEFE" d="M0 0h16.388v19.106H0V0z" id="path163" style="fill: rgb(0, 101, 119); fill-opacity: 1; --darkreader-inline-fill: #79ebff;" data-darkreader-inline-fill=""/>
    </g>
    <g clip-path="url(#zyfxwz48fc)" transform="translate(143.323 1139.541)" id="g169" style="fill: rgb(0, 101, 119); fill-opacity: 1; --darkreader-inline-fill: #79ebff;" data-darkreader-inline-fill="">
      <path fill="#FFFEFE" d="M0 0h18.435v19.106H0V0z" id="path167" style="fill: rgb(0, 101, 119); fill-opacity: 1; --darkreader-inline-fill: #79ebff;" data-darkreader-inline-fill=""/>
    </g>
    <g clip-path="url(#md8s2zkhxd)" transform="translate(125.69 1139.541)" id="g173" style="fill: rgb(0, 101, 119); fill-opacity: 1; --darkreader-inline-fill: #79ebff;" data-darkreader-inline-fill="">
      <path fill="#FFFEFE" d="M0 0h17.375v19.106H0V0z" id="path171" style="fill: rgb(0, 101, 119); fill-opacity: 1; --darkreader-inline-fill: #79ebff;" data-darkreader-inline-fill=""/>
    </g>
    <g clip-path="url(#15tblq3qwe)" transform="translate(104.216 1139.541)" id="g177" style="fill: rgb(0, 101, 119); fill-opacity: 1; --darkreader-inline-fill: #79ebff;" data-darkreader-inline-fill="">
      <path fill="#FFFEFE" d="M0 0h20.267v19.106H0V0z" id="path175" style="fill: rgb(0, 101, 119); fill-opacity: 1; --darkreader-inline-fill: #79ebff;" data-darkreader-inline-fill=""/>
    </g>
    <g clip-path="url(#15nadfmamg)" transform="translate(74 1139)" id="g195" style="fill: rgb(0, 101, 119); fill-opacity: 1; --darkreader-inline-fill: #79ebff;" data-darkreader-inline-fill="">
      <g clip-path="url(#joyp05f2ai)" transform="translate(-.006)" id="g189" style="fill: rgb(0, 101, 119); fill-opacity: 1; --darkreader-inline-fill: #79ebff;" data-darkreader-inline-fill="">
        <path fill="#FFFEFE" d="M.006 0h17.142v20.19H.006V0z" id="path187" style="fill: rgb(0, 101, 119); fill-opacity: 1; --darkreader-inline-fill: #79ebff;" data-darkreader-inline-fill=""/>
      </g>
      <g clip-path="url(#5o3ot4ar8j)" transform="translate(6.606 24.801)" id="g193" style="fill: rgb(0, 101, 119); fill-opacity: 1; --darkreader-inline-fill: #79ebff;" data-darkreader-inline-fill="">
        <path fill="#FFFEFE" d="M0 0h5.467v6.199H0V0z" id="path191" style="fill: rgb(0, 101, 119); fill-opacity: 1; --darkreader-inline-fill: #79ebff;" data-darkreader-inline-fill=""/>
      </g>
    </g>
    <g clip-path="url(#tfbcitlzck)" transform="translate(95.63 1163.87)" id="g199" style="fill: rgb(0, 101, 119); fill-opacity: 1; --darkreader-inline-fill: #79ebff;" data-darkreader-inline-fill="">
      <path fill="#FFFEFE" d="M0 0h1.037v6.085H0V0z" id="path197" style="fill: rgb(0, 101, 119); fill-opacity: 1; --darkreader-inline-fill: #79ebff;" data-darkreader-inline-fill=""/>
    </g>
    <g clip-path="url(#rs779nxdvl)" transform="translate(107.122 1163.87)" id="g203" style="fill: rgb(0, 101, 119); fill-opacity: 1; --darkreader-inline-fill: #79ebff;" data-darkreader-inline-fill="">
      <path fill="#FFFEFE" d="M0 0h5.047v6.085H0V0z" id="path201" style="fill: rgb(0, 101, 119); fill-opacity: 1; --darkreader-inline-fill: #79ebff;" data-darkreader-inline-fill=""/>
    </g>
    <g clip-path="url(#od7az71lcm)" transform="translate(122.128 1163.87)" id="g207" style="fill: rgb(0, 101, 119); fill-opacity: 1; --darkreader-inline-fill: #79ebff;" data-darkreader-inline-fill="">
      <path fill="#FFFEFE" d="M0 0h4.01v6.085H0V0z" id="path205" style="fill: rgb(0, 101, 119); fill-opacity: 1; --darkreader-inline-fill: #79ebff;" data-darkreader-inline-fill=""/>
    </g>
    <g clip-path="url(#stobq7wmxn)" transform="translate(135.807 1163.87)" id="g211" style="fill: rgb(0, 101, 119); fill-opacity: 1; --darkreader-inline-fill: #79ebff;" data-darkreader-inline-fill="">
      <path fill="#FFFEFE" d="M0 0h6.102v6.085H0V0z" id="path209" style="fill: rgb(0, 101, 119); fill-opacity: 1; --darkreader-inline-fill: #79ebff;" data-darkreader-inline-fill=""/>
    </g>
    <g clip-path="url(#hhiksz30ko)" transform="translate(151.093 1163.87)" id="g215" style="fill: rgb(0, 101, 119); fill-opacity: 1; --darkreader-inline-fill: #79ebff;" data-darkreader-inline-fill="">
      <path fill="#FFFEFE" d="M0 0h5.562v6.085H0V0z" id="path213" style="fill: rgb(0, 101, 119); fill-opacity: 1; --darkreader-inline-fill: #79ebff;" data-darkreader-inline-fill=""/>
    </g>
  </g>
</svg>